<svg xmlns="http://www.w3.org/2000/svg" version="1.1" xmlns:xlink="http://www.w3.org/1999/xlink" xmlns:svgjs="http://svgjs.com/svgjs" width="2000" height="1000" preserveAspectRatio="none" viewBox="0 0 2000 1000"><g mask="url(&quot;#SvgjsMask1075&quot;)" fill="none"><rect width="2000" height="1000" x="0" y="0" fill="rgba(38, 38, 38, 1)"></rect><path d="M0,679.069C129.013,702.552,255.563,639.046,372.296,579.304C499.098,514.409,628.693,442.839,701.177,320.217C777.327,191.393,811.949,34.13,781.122,-112.308C751.052,-255.151,636.845,-358.907,535.998,-464.445C439.677,-565.247,347.688,-698.647,208.833,-711.219C70.728,-723.724,-23.314,-571.229,-154.737,-526.987C-278.42,-485.35,-433.485,-546.366,-532.701,-461.588C-633.12,-375.782,-640.286,-225.497,-660.358,-94.945C-680.605,36.743,-722.807,185.41,-649.259,296.506C-576.025,407.128,-408.619,390.619,-294.318,457.968C-186.415,521.548,-123.217,656.641,0,679.069" fill="#1b1b1b"></path><path d="M2000 1554.144C2105.072 1541.887 2216.589 1530.875 2297.001 1462.142 2373.814 1396.4850000000001 2369.032 1278.688 2422.542 1192.969 2487.546 1088.838 2634.9049999999997 1029.991 2643.224 907.518 2651.466 786.188 2542.339 690.973 2462.895 598.899 2383.303 506.653 2303.629 395.57500000000005 2183.577 374.793 2065.293 354.317 1954.15 431.37300000000005 1851.131 492.997 1767.493 543.027 1718.83 628.025 1648.118 695.0930000000001 1567.531 771.527 1430.476 806.2139999999999 1406.542 914.674 1382.77 1022.399 1492.975 1110.4180000000001 1533.856 1212.881 1577.481 1322.222 1559.872 1467.508 1654.8600000000001 1537.049 1749.724 1606.499 1883.223 1567.766 2000 1554.144" fill="#313131"></path></g><defs><mask id="SvgjsMask1075"><rect width="2000" height="1000" fill="#ffffff"></rect></mask></defs></svg>